<?xml version="1.0" encoding="UTF-8"?>
<svg version="1.1" xmlns="http://www.w3.org/2000/svg" width="612" height="408" viewBox="0 0 612 408">
<defs>
  <linearGradient id="brandGradient" x1="0%" y1="0%" x2="100%" y2="100%">
    <stop offset="0%" style="stop-color:#8B5CF6;stop-opacity:1" />
    <stop offset="100%" style="stop-color:#3B82F6;stop-opacity:1" />
  </linearGradient>
  <filter id="glow">
    <feGaussianBlur stdDeviation="2" result="coloredBlur"/>
    <feMerge> 
      <feMergeNode in="coloredBlur"/>
      <feMergeNode in="SourceGraphic"/>
    </feMerge>
  </filter>
</defs>
<path d="M0 0 C91.08 0 182.16 0 276 0 C276 2.31 276 4.62 276 7 C184.92 7 93.84 7 0 7 C0 4.69 0 2.38 0 0 Z " fill="#C19724" transform="translate(176,246)"/>
<path d="M0 0 C1.26392578 -0.020625 2.52785156 -0.04125 3.83007812 -0.0625 C11.77277017 -0.09571565 18.35295778 0.0253614 24.8125 5.125 C28.29030878 9.67290379 28.92747216 13.56632289 28.4375 19.25 C27.03619291 23.25373453 25.78631047 26.53905819 22.4375 29.25 C23.4275 29.58 24.4175 29.91 25.4375 30.25 C26.7890625 31.703125 26.7890625 31.703125 28.0625 33.5 C28.70058594 34.37398437 28.70058594 34.37398437 29.3515625 35.265625 C32.20149279 40.47341128 31.44244068 45.65038351 30.43359375 51.29296875 C28.82790177 56.05967005 25.71763628 58.75459979 21.4375 61.25 C17.75422657 62.49093461 14.16119556 62.37938776 10.30078125 62.3828125 C9.28071236 62.38424759 9.28071236 62.38424759 8.24003601 62.38571167 C6.8087047 62.38639007 5.37737026 62.38455955 3.94604492 62.38037109 C1.74716372 62.37499306 -0.45151554 62.38034022 -2.65039062 62.38671875 C-4.04166712 62.3860584 -5.43294349 62.38477812 -6.82421875 62.3828125 C-8.09225342 62.38168457 -9.36028809 62.38055664 -10.66674805 62.37939453 C-13.5625 62.25 -13.5625 62.25 -14.5625 61.25 C-14.6616056 59.38364212 -14.69049261 57.51351806 -14.69189453 55.64453125 C-14.69504669 54.44658936 -14.69819885 53.24864746 -14.70144653 52.0144043 C-14.6994223 50.71027588 -14.69739807 49.40614746 -14.6953125 48.0625 C-14.6959856 46.72110985 -14.69695568 45.37971981 -14.69821167 44.03833008 C-14.69968836 41.22378379 -14.69753504 38.40926918 -14.69287109 35.59472656 C-14.68717381 31.97959369 -14.69045297 28.36453505 -14.69644356 24.74940491 C-14.70004997 21.97855058 -14.69891022 19.20771398 -14.69631577 16.43685913 C-14.69532033 14.45310417 -14.69836741 12.46934853 -14.70144653 10.4855957 C-14.69829437 9.28765381 -14.69514221 8.08971191 -14.69189453 6.85546875 C-14.69109894 5.79481201 -14.69030334 4.73415527 -14.68948364 3.64135742 C-14.36692208 -2.43312559 -4.59589512 0.01835605 0 0 Z M-2.5625 9.25 C-2.5625 14.53 -2.5625 19.81 -2.5625 25.25 C-0.190625 25.353125 2.18125 25.45625 4.625 25.5625 C5.73137817 25.63078003 5.73137817 25.63078003 6.86010742 25.70043945 C10.69165491 25.78064065 12.34697611 25.31701119 15.4453125 23.0234375 C17.60892289 20.49072716 17.60892289 20.49072716 17.69921875 17.86328125 C16.57437778 12.99335184 16.57437778 12.99335184 13.0625 9.6875 C7.81913493 9.05468008 2.71898116 9.13263375 -2.5625 9.25 Z M-2.5625 34.25 C-2.5625 40.52 -2.5625 46.79 -2.5625 53.25 C-0.005 53.29125 2.5525 53.3325 5.1875 53.375 C5.98639648 53.39320801 6.78529297 53.41141602 7.60839844 53.43017578 C12.85083859 53.47939528 12.85083859 53.47939528 17.4375 51.25 C19.93336768 47.67258966 20.53876335 45.98415928 19.9375 41.625 C18.20734255 37.73214574 17.04303138 36.47397262 13.4375 34.25 C10.63925954 33.78494032 7.95123624 33.86968696 5.125 34 C2.588125 34.0825 0.05125 34.165 -2.5625 34.25 Z " fill="#FCB814" transform="translate(374.5625,169.75)"/>
<path d="M0 0 C1.65079442 1.65079442 1.22549447 3.63736179 1.31640625 5.91015625 C1.35830078 6.89951172 1.40019531 7.88886719 1.44335938 8.90820312 C1.48267578 9.94912109 1.52199219 10.99003906 1.5625 12.0625 C1.60568359 13.10728516 1.64886719 14.15207031 1.69335938 15.22851562 C1.79981225 17.81886884 1.9018276 20.40932186 2 23 C2.62841797 22.29617187 2.62841797 22.29617187 3.26953125 21.578125 C6.50719481 18.62549277 10.89087358 17.96948823 15.16015625 18.03125 C18.83154629 18.41554503 21.84372975 19.10656144 25 21 C30.14986941 28.00779077 29.51252767 35.74935996 29.35668945 44.07495117 C29.31215807 46.45578082 29.29517631 48.83560002 29.28320312 51.21679688 C29.26979587 52.72657723 29.25487758 54.23634509 29.23828125 55.74609375 C29.23089432 56.45954453 29.22350739 57.1729953 29.21589661 57.9080658 C29.11840798 62.88159202 29.11840798 62.88159202 28 64 C26.14712498 64.07226502 24.29166122 64.0838122 22.4375 64.0625 C21.42558594 64.05347656 20.41367188 64.04445313 19.37109375 64.03515625 C18.58863281 64.02355469 17.80617187 64.01195312 17 64 C16.97494385 63.04109863 16.9498877 62.08219727 16.92407227 61.09423828 C16.8300138 57.54201523 16.72978942 53.98998844 16.62768555 50.43798828 C16.58433074 48.89962347 16.54265605 47.36121037 16.50268555 45.82275391 C16.44499602 43.6134586 16.38129821 41.40440652 16.31640625 39.1953125 C16.29969376 38.50567413 16.28298126 37.81603577 16.26576233 37.10549927 C16.19193005 33.42885736 16.19193005 33.42885736 15 30 C9.91602628 28.80377089 6.83479825 29.22199781 2 31 C1.97494385 31.96413818 1.9498877 32.92827637 1.92407227 33.92163086 C1.83014694 37.48687842 1.72989061 41.05192433 1.62768555 44.61694336 C1.58428015 46.16214289 1.54260929 47.70739214 1.50268555 49.25268555 C1.44511801 51.46939096 1.38138576 53.6858448 1.31640625 55.90234375 C1.29133751 56.94454323 1.29133751 56.94454323 1.26576233 58.00779724 C1.11387171 62.88612829 1.11387171 62.88612829 0 64 C-1.85287502 64.07226502 -3.70833878 64.0838122 -5.5625 64.0625 C-7.08037109 64.04896484 -7.08037109 64.04896484 -8.62890625 64.03515625 C-9.41136719 64.02355469 -10.19382813 64.01195312 -11 64 C-11.00586624 63.31983826 -11.01173248 62.63967651 -11.01777649 61.93890381 C-11.08166107 54.8660574 -11.16606832 47.79366808 -11.26245117 40.72119141 C-11.29572603 38.08095319 -11.32374988 35.4406434 -11.34643555 32.80029297 C-11.37993357 29.00717639 -11.43224898 25.21471728 -11.48828125 21.421875 C-11.49786613 19.64825592 -11.49786613 19.64825592 -11.50764465 17.83880615 C-11.52743881 16.73796692 -11.54723297 15.63712769 -11.56762695 14.50292969 C-11.57873001 13.53474304 -11.58983307 12.5665564 -11.60127258 11.56903076 C-12.06296954 8.59428249 -13.20327958 7.34840768 -15 5 C-14.67 4.01 -14.34 3.02 -14 2 C-9.2583908 0.19818851 -5.05042022 -0.30302521 0 0 Z " fill="#E6E6E6" transform="translate(187,168)"/>
<path d="M0 0 C0 11.22 0 22.44 0 34 C4.464508 31.3212952 5.70115069 30.50895139 8.25 26.4375 C8.75015625 25.65246094 9.2503125 24.86742187 9.765625 24.05859375 C11.01274348 22.0381949 11.01274348 22.0381949 12 20 C16.95 20 21.9 20 27 20 C26.34 21.65 25.68 23.3 25 25 C24.34 25 23.68 25 23 25 C22.61714844 25.84304687 22.61714844 25.84304687 22.2265625 26.703125 C20.84307219 29.29386482 19.20061417 31.45107845 17.375 33.75 C16.74335938 34.54921875 16.11171875 35.3484375 15.4609375 36.171875 C14.97882813 36.77515625 14.49671875 37.3784375 14 38 C15.96970377 42.1725812 18.17418303 45.80850554 20.9375 49.5 C21.63746094 50.44875 22.33742188 51.3975 23.05859375 52.375 C23.69925781 53.24125 24.33992188 54.1075 25 55 C29 60.49584488 29 60.49584488 29 64 C24.38 64 19.76 64 15 64 C14.67 62.68 14.34 61.36 14 60 C12.515 59.505 12.515 59.505 11 59 C9.59431196 57.05017465 8.2704964 55.04049422 7 53 C4.27573116 48.77551327 4.27573116 48.77551327 1 45 C0.67 51.27 0.34 57.54 0 64 C-3.63 64 -7.26 64 -11 64 C-11.01401855 61.54796143 -11.01401855 61.54796143 -11.02832031 59.04638672 C-11.06822898 52.97433343 -11.1339917 46.9027863 -11.20751953 40.83105469 C-11.23572378 38.20449329 -11.25694096 35.5778471 -11.27099609 32.95117188 C-11.292432 29.17273566 -11.33908948 25.39531837 -11.390625 21.6171875 C-11.39185364 20.44509735 -11.39308228 19.2730072 -11.39434814 18.06539917 C-11.50698021 11.77830967 -11.75464937 7.78526456 -16 3 C-9.75306537 0.3227423 -7.41020486 0 0 0 Z " fill="#E6E6E6" transform="translate(280,168)"/>
<path d="M0 0 C3.14600785 2.40010924 4.85309015 4.8393165 6.04296875 8.55859375 C6.5169875 13.38325615 6.42006143 18.15435149 6.29296875 22.99609375 C6.27492188 24.29998047 6.256875 25.60386719 6.23828125 26.94726562 C6.19132832 30.15180284 6.12566339 33.35481265 6.04296875 36.55859375 C7.36296875 36.55859375 8.68296875 36.55859375 10.04296875 36.55859375 C10.04296875 38.86859375 10.04296875 41.17859375 10.04296875 43.55859375 C8.12700907 43.63993166 6.21004943 43.69793742 4.29296875 43.74609375 C2.69195312 43.79830078 2.69195312 43.79830078 1.05859375 43.8515625 C-2.2573098 43.52942161 -3.54719798 42.78710461 -5.95703125 40.55859375 C-6.46363281 41.04328125 -6.97023438 41.52796875 -7.4921875 42.02734375 C-10.86918279 44.12525525 -13.44249794 44.02725949 -17.39453125 44.05859375 C-19.34166016 44.105 -19.34166016 44.105 -21.328125 44.15234375 C-25.77377302 43.42496108 -27.17330868 42.01353167 -29.95703125 38.55859375 C-31.81772889 34.83719848 -31.52589739 30.61096605 -30.95703125 26.55859375 C-28.76953125 23.62109375 -28.76953125 23.62109375 -25.95703125 21.55859375 C-24.78140625 20.69234375 -24.78140625 20.69234375 -23.58203125 19.80859375 C-17.99904601 17.15002935 -12.00747969 17.45244553 -5.95703125 17.55859375 C-6.61703125 14.91859375 -7.27703125 12.27859375 -7.95703125 9.55859375 C-15.13053062 8.30008509 -20.4636027 8.92227376 -26.95703125 12.55859375 C-28.53600958 10.97961542 -28.20246634 9.36496803 -28.26953125 7.18359375 C-28.19424668 2.86499701 -28.19424668 2.86499701 -26.45703125 0.62109375 C-17.35732573 -3.2462811 -9.1469812 -3.74876279 0 0 Z M-13.01953125 24.99609375 C-13.71175781 25.26292969 -14.40398437 25.52976563 -15.1171875 25.8046875 C-18.08375098 26.89306402 -18.08375098 26.89306402 -19.83203125 29.37109375 C-20.16609246 31.69919949 -20.16609246 31.69919949 -18.58203125 33.93359375 C-15.4610604 35.86562332 -14.7402711 35.61838223 -11.26953125 34.87109375 C-8.34165611 34.20367695 -8.34165611 34.20367695 -5.95703125 32.55859375 C-5.88523161 31.03931337 -5.87311118 29.51691893 -5.89453125 27.99609375 C-5.90355469 27.16980469 -5.91257812 26.34351563 -5.921875 25.4921875 C-5.93347656 24.85410156 -5.94507813 24.21601563 -5.95703125 23.55859375 C-8.87086478 23.55859375 -10.36135639 23.95766656 -13.01953125 24.99609375 Z " fill="#DFDFDF" transform="translate(342.95703125,188.44140625)"/>
<path d="M0 0 C1.0828125 -0.00515625 2.165625 -0.0103125 3.28125 -0.015625 C8.02259216 0.37565081 11.41285537 1.16285537 14.8125 4.5625 C17.61317497 9.0228342 17.64456869 13.46485627 17.81640625 18.64453125 C17.85830078 19.84658203 17.90019531 21.04863281 17.94335938 22.28710938 C17.98267578 23.53298828 18.02199219 24.77886719 18.0625 26.0625 C18.12727539 27.96032227 18.12727539 27.96032227 18.19335938 29.89648438 C18.2992447 33.01421889 18.40132405 36.13203035 18.5 39.25 C19.82 39.58 21.14 39.91 22.5 40.25 C21.84 42.23 21.18 44.21 20.5 46.25 C16.87 46.25 13.24 46.25 9.5 46.25 C8.84 44.93 8.18 43.61 7.5 42.25 C6.66855469 42.90226562 5.83710938 43.55453125 4.98046875 44.2265625 C1.3057227 46.67207632 -1.77662621 46.72155644 -6.1875 46.625 C-7.49074219 46.61210937 -8.79398437 46.59921875 -10.13671875 46.5859375 C-13.5 46.25 -13.5 46.25 -16.5 44.25 C-16.5 43.59 -16.5 42.93 -16.5 42.25 C-17.16 42.25 -17.82 42.25 -18.5 42.25 C-20.68487017 38.26582499 -20.8571403 34.86813 -20.2265625 30.46875 C-18.89255306 26.39500073 -16.13096982 24.32987592 -12.5 22.25 C-6.18535588 19.93463049 -0.17431238 20.02915878 6.5 20.25 C5.40213575 14.84212615 5.40213575 14.84212615 1.5 11.25 C-4.55914489 10.74507126 -8.05587122 11.68805704 -13.5 14.25 C-14.49 14.25 -15.48 14.25 -16.5 14.25 C-17.12316911 5.99300932 -17.12316911 5.99300932 -14.875 3.3125 C-9.8376728 1.05895888 -5.53802002 -0.02637152 0 0 Z M-7.5 30.25 C-8.65317663 33.22903963 -8.5448029 34.11559131 -7.5 37.25 C-2.81967018 38.36436424 0.07410732 38.16118093 4.5 36.25 C6.68331689 34.48863645 6.68331689 34.48863645 6.6953125 32.3046875 C6.67210937 31.58539063 6.64890625 30.86609375 6.625 30.125 C6.58375 28.84625 6.5425 27.5675 6.5 26.25 C1.07767579 25.93103975 -2.99667324 27.24778216 -7.5 30.25 Z " fill="#F1B317" transform="translate(431.5,185.75)"/>
<path d="M0 0 C2.21029956 1.9515992 3.05034281 3.51779628 4.15234375 6.2421875 C4.4875 7.02722656 4.82265625 7.81226563 5.16796875 8.62109375 C5.90234375 11.6796875 5.90234375 11.6796875 5.90234375 21.6796875 C-3.66765625 21.6796875 -13.23765625 21.6796875 -23.09765625 21.6796875 C-21.07149746 29.45245788 -21.07149746 29.45245788 -17.09765625 31.6796875 C-10.71282325 32.4514805 -5.68115956 32.02978949 -0.09765625 28.6796875 C0.89234375 28.6796875 1.88234375 28.6796875 2.90234375 28.6796875 C2.90234375 31.6496875 2.90234375 34.6196875 2.90234375 37.6796875 C-2.57264023 41.40733616 -7.18280579 42.11255745 -13.66015625 42.1796875 C-14.38001709 42.19773438 -15.09987793 42.21578125 -15.84155273 42.234375 C-21.33461875 42.17407376 -24.58037835 40.8143537 -29.09765625 37.6796875 C-30.83984375 35.8984375 -30.83984375 35.8984375 -31.97265625 34.1796875 C-32.36195313 33.6125 -32.75125 33.0453125 -33.15234375 32.4609375 C-36.55259215 26.05385787 -36.1008262 16.53384156 -34.28515625 9.6796875 C-32.1726095 4.34272728 -29.99114133 0.83326678 -25.09765625 -2.3203125 C-16.31161956 -5.59426722 -7.94324772 -4.99966057 0 0 Z M-21.09765625 6.6796875 C-23.19205665 10.49403029 -23.19205665 10.49403029 -24.09765625 14.6796875 C-18.15765625 14.6796875 -12.21765625 14.6796875 -6.09765625 14.6796875 C-6.38419289 8.14445996 -6.38419289 8.14445996 -8.78515625 5.7421875 C-12.94152509 3.83250452 -17.44141088 3.77990669 -21.09765625 6.6796875 Z " fill="#E0E0E0" transform="translate(257.09765625,190.3203125)"/>
<path d="M0 0 C0.86825912 0.00222061 1.73651825 0.00444122 2.63108826 0.00672913 C3.61202957 0.00680466 4.59297089 0.00688019 5.6036377 0.00695801 C6.6702916 0.01211929 7.7369455 0.01728058 8.83592224 0.02259827 C9.92211349 0.02401321 11.00830475 0.02542816 12.12741089 0.02688599 C15.61230674 0.03250403 19.09713941 0.04505959 22.58201599 0.05775452 C24.93813486 0.06276719 27.29425473 0.0673305 29.65037537 0.07142639 C35.44011342 0.08247933 41.22980398 0.09975605 47.01951599 0.12025452 C47.01951599 3.09025452 47.01951599 6.06025452 47.01951599 9.12025452 C40.74951599 9.12025452 34.47951599 9.12025452 28.01951599 9.12025452 C28.01951599 26.61025452 28.01951599 44.10025452 28.01951599 62.12025452 C24.05951599 62.12025452 20.09951599 62.12025452 16.01951599 62.12025452 C16.01951599 44.63025452 16.01951599 27.14025452 16.01951599 9.12025452 C9.74951599 9.12025452 3.47951599 9.12025452 -2.98048401 9.12025452 C-2.98048401 0.18097428 -2.98048401 0.18097428 0 0 Z " fill="#E5E5E5" transform="translate(121.98048400878906,169.87974548339844)"/>
<path d="M0 0 C89.43 0 178.86 0 271 0 C271.33 0.99 271.66 1.98 272 3 C181.91 3 91.82 3 -1 3 C-0.67 2.01 -0.34 1.02 0 0 Z " fill="url(#brandGradient)" filter="url(#glow)" stroke="rgba(139, 92, 246, 0.3)" stroke-width="0.5" transform="translate(178,248)"/>
<path d="M0 0 C3.63 0.33 7.26 0.66 11 1 C11.33 2.32 11.66 3.64 12 5 C12.804375 4.175 13.60875 3.35 14.4375 2.5 C18.4505861 -0.91641622 21.91196091 -0.38545751 27 0 C27 3.63 27 7.26 27 11 C24.23307292 11.35807292 21.46614583 11.71614583 18.69921875 12.07421875 C15.86323711 12.76780572 15.86323711 12.76780572 14.36328125 15.14453125 C12.76165411 18.49922879 12.57293239 20.90556132 12.48828125 24.61328125 C12.45283203 25.86044922 12.41738281 27.10761719 12.38085938 28.39257812 C12.34702148 30.33293945 12.34702148 30.33293945 12.3125 32.3125 C12.27833984 33.62541016 12.24417969 34.93832031 12.20898438 36.29101562 C12.12660728 39.52725851 12.05741984 42.76323385 12 46 C8.37 46 4.74 46 1 46 C0.67 30.82 0.34 15.64 0 0 Z " fill="#F9BA1A" transform="translate(456,186)"/>
<path d="M0 0 C1.26392578 -0.020625 2.52785156 -0.04125 3.83007812 -0.0625 C11.77277017 -0.09571565 18.35295778 0.0253614 24.8125 5.125 C28.29030878 9.67290379 28.92747216 13.56632289 28.4375 19.25 C25.82733051 26.70762712 25.82733051 26.70762712 22.4375 29.25 C21.4475 29.58 20.4575 29.91 19.4375 30.25 C19.3125 27.875 19.3125 27.875 19.4375 25.25 C20.0975 24.59 20.7575 23.93 21.4375 23.25 C22.4275 23.25 23.4175 23.25 24.4375 23.25 C24.4375 21.6 24.4375 19.95 24.4375 18.25 C25.0975 18.25 25.7575 18.25 26.4375 18.25 C26.24921228 15.80519921 26.24921228 15.80519921 25.4375 13.25 C23.46991727 11.88979849 23.46991727 11.88979849 21.4375 11.25 C21.4375 10.59 21.4375 9.93 21.4375 9.25 C20.7775 9.25 20.1175 9.25 19.4375 9.25 C19.64375 10.260625 19.85 11.27125 20.0625 12.3125 C20.47657441 16.66028132 20.23279128 19.26913673 18.4375 23.25 C15.3125 24.6875 15.3125 24.6875 12.4375 25.25 C13.0975 24.26 13.7575 23.27 14.4375 22.25 C15.0975 22.25 15.7575 22.25 16.4375 22.25 C16.1075 18.62 15.7775 14.99 15.4375 11.25 C9.4975 10.59 3.5575 9.93 -2.5625 9.25 C-2.5625 14.53 -2.5625 19.81 -2.5625 25.25 C-2.8925 25.25 -3.2225 25.25 -3.5625 25.25 C-3.58934312 22.43743719 -3.60926188 19.62512759 -3.625 16.8125 C-3.63337891 16.01005859 -3.64175781 15.20761719 -3.65039062 14.38085938 C-3.6590143 12.33704779 -3.6147815 10.29316098 -3.5625 8.25 C-1.50327598 6.19077598 2.65458124 6.83572421 5.5 6.6875 C6.25861328 6.64431641 7.01722656 6.60113281 7.79882812 6.55664062 C9.67815438 6.45026367 11.55780244 6.34960066 13.4375 6.25 C12.7775 5.92 12.1175 5.59 11.4375 5.25 C11.4375 4.59 11.4375 3.93 11.4375 3.25 C3.8475 3.25 -3.7425 3.25 -11.5625 3.25 C-11.8925 22.06 -12.2225 40.87 -12.5625 60.25 C-2.6625 60.25 7.2375 60.25 17.4375 60.25 C17.4375 60.91 17.4375 61.57 17.4375 62.25 C13.04093827 62.27465504 8.6444128 62.29283842 4.24780273 62.30493164 C2.75105082 62.30997121 1.25430384 62.31680287 -0.24243164 62.32543945 C-2.38949807 62.33752159 -4.53649962 62.34323191 -6.68359375 62.34765625 C-8.62383423 62.35551147 -8.62383423 62.35551147 -10.60327148 62.36352539 C-13.5625 62.25 -13.5625 62.25 -14.5625 61.25 C-14.6616056 59.38364212 -14.69049261 57.51351806 -14.69189453 55.64453125 C-14.69504669 54.44658936 -14.69819885 53.24864746 -14.70144653 52.0144043 C-14.6994223 50.71027588 -14.69739807 49.40614746 -14.6953125 48.0625 C-14.6959856 46.72110985 -14.69695568 45.37971981 -14.69821167 44.03833008 C-14.69968836 41.22378379 -14.69753504 38.40926918 -14.69287109 35.59472656 C-14.68717381 31.97959369 -14.69045297 28.36453505 -14.69644356 24.74940491 C-14.70004997 21.97855058 -14.69891022 19.20771398 -14.69631577 16.43685913 C-14.69532033 14.45310417 -14.69836741 12.46934853 -14.70144653 10.4855957 C-14.69829437 9.28765381 -14.69514221 8.08971191 -14.69189453 6.85546875 C-14.69109894 5.79481201 -14.69030334 4.73415527 -14.68948364 3.64135742 C-14.36692208 -2.43312559 -4.59589512 0.01835605 0 0 Z " fill="#C6991D" transform="translate(374.5625,169.75)"/>
<path d="M0 0 C0.33 0 0.66 0 1 0 C1 5.61 1 11.22 1 17 C3.91697011 16.85895309 6.8334802 16.71235186 9.75 16.5625 C10.575 16.52318359 11.4 16.48386719 12.25 16.44335938 C13.04921875 16.40146484 13.8484375 16.35957031 14.671875 16.31640625 C15.77160645 16.26141968 15.77160645 16.26141968 16.89355469 16.20532227 C19.01177605 15.99885215 20.9519456 15.56867914 23 15 C22.95875 14.071875 22.9175 13.14375 22.875 12.1875 C23 9 23 9 25 6 C24.34 5.67 23.68 5.34 23 5 C23.33 3.68 23.66 2.36 24 1 C25.32 1.33 26.64 1.66 28 2 C28 2.66 28 3.32 28 4 C28.99 4.33 29.98 4.66 31 5 C31 6.65 31 8.3 31 10 C30.34 10 29.68 10 29 10 C29.12375 11.1446875 29.12375 11.1446875 29.25 12.3125 C29.1675 13.199375 29.085 14.08625 29 15 C27.70264493 16.04625409 26.36733028 17.04701223 25 18 C24.20376178 20.09415804 24.20376178 20.09415804 24 22 C25.65 22.33 27.3 22.66 29 23 C29.33 23.99 29.66 24.98 30 26 C28.3125 27.125 28.3125 27.125 26 28 C25.34 27.7009375 24.68 27.401875 24 27.09375 C19.61889306 25.49647143 15.31799056 25.53207671 10.6875 25.375 C9.75615234 25.33632812 8.82480469 25.29765625 7.86523438 25.2578125 C5.57713461 25.16394174 3.28859511 25.08089918 1 25 C1 31.27 1 37.54 1 44 C0.34 44 -0.32 44 -1 44 C-2.04907768 39.82753197 -2.02084789 36.09641086 -1.75 31.8125 C-1.68296875 30.58144531 -1.6159375 29.35039062 -1.546875 28.08203125 C-1.36640625 27.06496094 -1.1859375 26.04789063 -1 25 C3.08897692 22.27401538 6.97420244 22.58376126 11.7265625 22.43359375 C13.48852992 22.35444287 15.24590082 22.18420135 17 22 C17.33 21.34 17.66 20.68 18 20 C16.78441406 19.93941406 15.56882812 19.87882812 14.31640625 19.81640625 C12.73175772 19.73201668 11.14712298 19.6473679 9.5625 19.5625 C8.76005859 19.52318359 7.95761719 19.48386719 7.13085938 19.44335938 C1.11328125 19.11328125 1.11328125 19.11328125 0 18 C-0.08631874 16.65732587 -0.10706473 15.31025678 -0.09765625 13.96484375 C-0.09443359 13.15595703 -0.09121094 12.34707031 -0.08789062 11.51367188 C-0.07951172 10.66353516 -0.07113281 9.81339844 -0.0625 8.9375 C-0.05798828 8.08349609 -0.05347656 7.22949219 -0.04882812 6.34960938 C-0.03700373 4.23304337 -0.01906769 2.11651315 0 0 Z " fill="#EFB726" transform="translate(370,178)"/>
<path d="M0 0 C1.0828125 -0.00515625 2.165625 -0.0103125 3.28125 -0.015625 C8.02259216 0.37565081 11.41285537 1.16285537 14.8125 4.5625 C17.61317497 9.0228342 17.64456869 13.46485627 17.81640625 18.64453125 C17.85830078 19.84658203 17.90019531 21.04863281 17.94335938 22.28710938 C17.98267578 23.53298828 18.02199219 24.77886719 18.0625 26.0625 C18.12727539 27.96032227 18.12727539 27.96032227 18.19335938 29.89648438 C18.2992447 33.01421889 18.40132405 36.13203035 18.5 39.25 C19.82 39.58 21.14 39.91 22.5 40.25 C21.84 42.23 21.18 44.21 20.5 46.25 C18.70906809 46.33086147 16.91710372 46.38912702 15.125 46.4375 C13.62839844 46.48970703 13.62839844 46.48970703 12.1015625 46.54296875 C11.24304688 46.44628906 10.38453125 46.34960938 9.5 46.25 C8.84 45.26 8.18 44.27 7.5 43.25 C10.8 43.58 14.1 43.91 17.5 44.25 C18.16 43.26 18.82 42.27 19.5 41.25 C17.85 41.25 16.2 41.25 14.5 41.25 C14.50523682 40.32662842 14.51047363 39.40325684 14.51586914 38.4519043 C14.53291585 35.02465186 14.5454525 31.5974445 14.55493164 28.17016602 C14.55995903 26.68708587 14.56678185 25.20401067 14.57543945 23.72094727 C14.58757482 21.58869199 14.59324425 19.45650227 14.59765625 17.32421875 C14.60289307 16.04119873 14.60812988 14.75817871 14.61352539 13.4362793 C14.64927176 10.2274026 14.64927176 10.2274026 13.5 7.25 C12.84 7.25 12.18 7.25 11.5 7.25 C10.819375 6.5384375 10.819375 6.5384375 10.125 5.8125 C7.35287141 3.14699174 4.90042929 3.26483071 1.125 3.125 C-2.18422263 3.23911113 -5.25490629 3.61681098 -8.5 4.25 C-8.5 5.24 -8.5 6.23 -8.5 7.25 C-7.80132812 7.28738281 -7.10265625 7.32476562 -6.3828125 7.36328125 C-5.01769531 7.46189453 -5.01769531 7.46189453 -3.625 7.5625 C-2.72007812 7.62050781 -1.81515625 7.67851562 -0.8828125 7.73828125 C1.5 8.25 1.5 8.25 3.5 11.25 C2.85933594 11.21519531 2.21867187 11.18039063 1.55859375 11.14453125 C-4.39716501 10.95813642 -8.17262263 11.64067231 -13.5 14.25 C-14.49 14.25 -15.48 14.25 -16.5 14.25 C-17.12316911 5.99300932 -17.12316911 5.99300932 -14.875 3.3125 C-9.8376728 1.05895888 -5.53802002 -0.02637152 0 0 Z " fill="#C39921" transform="translate(431.5,185.75)"/>
<path d="M0 0 C0.66 0 1.32 0 2 0 C3.25390625 1.35546875 3.25390625 1.35546875 4.5625 3.1875 C4.99691406 3.77917969 5.43132812 4.37085938 5.87890625 4.98046875 C8.34153762 9.41663746 8.05335374 13.2882594 7.25 18.1875 C7.01023437 19.75564453 7.01023437 19.75564453 6.765625 21.35546875 C6 24 6 24 3 26 C3 24.68 3 23.36 3 22 C1.6078125 22.309375 1.6078125 22.309375 0.1875 22.625 C-3 23 -3 23 -6 21 C-5.608125 19.80375 -5.21625 18.6075 -4.8125 17.375 C-3.95816363 13.98172032 -3.9666237 13.09485896 -5.1875 9.625 C-6.89907365 6.80041149 -6.89907365 6.80041149 -10 5 C-12.7610633 4.69858629 -15.42073037 4.49142006 -18.1875 4.375 C-20.765625 4.25125 -23.34375 4.1275 -26 4 C-26 10.27 -26 16.54 -26 23 C-26.33 23 -26.66 23 -27 23 C-27 16.4 -27 9.8 -27 3 C-23.82375 2.95875 -20.6475 2.9175 -17.375 2.875 C-16.3854834 2.85679199 -15.3959668 2.83858398 -14.37646484 2.81982422 C-9.50893709 2.78932223 -5.56418622 3.07424701 -1 5 C-0.34 4.34 0.32 3.68 1 3 C0.67 2.01 0.34 1.02 0 0 Z " fill="#C69D28" transform="translate(398,200)"/>
<path d="M0 0 C0 3.63 0 7.26 0 11 C-2.76692708 11.35807292 -5.53385417 11.71614583 -8.30078125 12.07421875 C-11.13676289 12.76780572 -11.13676289 12.76780572 -12.63671875 15.14453125 C-14.23834589 18.49922879 -14.42706761 20.90556132 -14.51171875 24.61328125 C-14.54716797 25.86044922 -14.58261719 27.10761719 -14.61914062 28.39257812 C-14.65297852 30.33293945 -14.65297852 30.33293945 -14.6875 32.3125 C-14.72166016 33.62541016 -14.75582031 34.93832031 -14.79101562 36.29101562 C-14.87339272 39.52725851 -14.94258016 42.76323385 -15 46 C-18.63 46 -22.26 46 -26 46 C-26 34.45 -26 22.9 -26 11 C-25.67 11 -25.34 11 -25 11 C-25 22.22 -25 33.44 -25 45 C-22.03 45 -19.06 45 -16 45 C-16.0407666 44.00145996 -16.0815332 43.00291992 -16.12353516 41.97412109 C-16.27259255 38.25086122 -16.40700127 34.52718887 -16.53710938 30.80322266 C-16.59531968 29.19500136 -16.65744199 27.58691651 -16.72363281 25.97900391 C-16.81837323 23.66073469 -16.89878931 21.34233057 -16.9765625 19.0234375 C-17.00875885 18.31069672 -17.0409552 17.59795593 -17.0741272 16.86361694 C-17.2535877 10.81168569 -16.50197882 6.68514696 -12.4375 2.125 C-8.51871008 -0.91862592 -4.77937184 -0.36207362 0 0 Z " fill="#9C7B1B" transform="translate(483,186)"/>
<path d="M0 0 C0.33 0 0.66 0 1 0 C1 18.81 1 37.62 1 57 C11.395 56.505 11.395 56.505 22 56 C22 55.34 22 54.68 22 54 C18.04 53.34 14.08 52.68 10 52 C10 51.67 10 51.34 10 51 C11.08539063 50.95101562 12.17078125 50.90203125 13.2890625 50.8515625 C14.73439784 50.77648014 16.17970919 50.70093472 17.625 50.625 C18.33785156 50.5940625 19.05070312 50.563125 19.78515625 50.53125 C24.17152608 50.28979845 27.8594834 49.60657269 32 48 C32.33 48.66 32.66 49.32 33 50 C34.98 50 36.96 50 39 50 C39.3125 52.25 39.3125 52.25 39 55 C36.12761204 58.06674445 34.5314124 58.94780488 30.3112793 59.36230469 C28.89814171 59.31971494 27.48551414 59.25564283 26.07421875 59.171875 C25.41087524 59.14818848 24.74753174 59.12450195 24.06408691 59.10009766 C21.60424929 59.00617531 19.14590468 58.8759722 16.6875 58.75 C11.180625 58.5025 5.67375 58.255 0 58 C0 38.86 0 19.72 0 0 Z " fill="#F5BA20" transform="translate(362,172)"/>
<path d="M0 0 C0 1.65 0 3.3 0 5 C-0.99 5.495 -0.99 5.495 -2 6 C-2 6.66 -2 7.32 -2 8 C-1.360625 8.12375 -0.72125 8.2475 -0.0625 8.375 C0.618125 8.58125 1.29875 8.7875 2 9 C2.33 9.66 2.66 10.32 3 11 C2.01 11 1.02 11 0 11 C0.37125 11.928125 0.7425 12.85625 1.125 13.8125 C1.41375 14.864375 1.7025 15.91625 2 17 C0 20 0 20 -2.625 20.6875 C-3.40875 20.790625 -4.1925 20.89375 -5 21 C-4.01 21.66 -3.02 22.32 -2 23 C-5.3 23 -8.6 23 -12 23 C-12 21.33333333 -12 19.66666667 -12 18 C-8.7 18 -5.4 18 -2 18 C-2.268125 16.7625 -2.53625 15.525 -2.8125 14.25 C-2.96332031 13.55390625 -3.11414063 12.8578125 -3.26953125 12.140625 C-4.1532024 9.55104323 -5.09447418 7.97358032 -7 6 C-9.4829419 5.09438854 -9.4829419 5.09438854 -12.1875 4.75 C-13.08855469 4.60046875 -13.98960937 4.4509375 -14.91796875 4.296875 C-15.60503906 4.19890625 -16.29210937 4.1009375 -17 4 C-17 3.01 -17 2.02 -17 1 C-11.28781613 -1.22914492 -5.92205576 -1.89505784 0 0 Z " fill="#ECB622" transform="translate(440,189)"/>
<path d="M0 0 C0.99 0.33 1.98 0.66 3 1 C2.67 20.14 2.34 39.28 2 59 C11.9 59 21.8 59 32 59 C32 59.66 32 60.32 32 61 C27.60343827 61.02465504 23.2069128 61.04283842 18.81030273 61.05493164 C17.31355082 61.05997121 15.81680384 61.06680287 14.32006836 61.07543945 C12.17300193 61.08752159 10.02600038 61.09323191 7.87890625 61.09765625 C5.93866577 61.10551147 5.93866577 61.10551147 3.95922852 61.11352539 C1 61 1 61 0 60 C-0.09386381 58.1281906 -0.11743804 56.2528194 -0.11352539 54.37866211 C-0.11344986 53.17749252 -0.11337433 51.97632294 -0.11329651 50.73875427 C-0.10813522 49.4314888 -0.10297394 48.12422333 -0.09765625 46.77734375 C-0.09579198 45.43355868 -0.09436812 44.08977293 -0.09336853 42.74598694 C-0.08954402 39.20317723 -0.07971432 35.6604083 -0.06866455 32.11761475 C-0.05844899 28.50484773 -0.0538706 24.89207416 -0.04882812 21.27929688 C-0.03809198 14.1861812 -0.02101636 7.09309326 0 0 Z " fill="#77632A" transform="translate(360,171)"/>
<path d="M0 0 C0.66 0 1.32 0 2 0 C2 3.3 2 6.6 2 10 C1.01 10.33 0.02 10.66 -1 11 C-1 11.66 -1 12.32 -1 13 C-0.01 13 0.98 13 2 13 C0.61886036 17.14341892 -1.18374776 17.96582454 -5 20 C-7.78582574 20.28139654 -10.12356255 20.38863832 -12.875 20.25 C-13.56335938 20.23195312 -14.25171875 20.21390625 -14.9609375 20.1953125 C-16.6412381 20.14863748 -18.32081163 20.07690939 -20 20 C-20.33 19.34 -20.66 18.68 -21 18 C-19.824375 18.0928125 -19.824375 18.0928125 -18.625 18.1875 C-17.75875 18.125625 -16.8925 18.06375 -16 18 C-15.34 17.01 -14.68 16.02 -14 15 C-14.33 14.67 -14.66 14.34 -15 14 C-15.04080783 12.00041636 -15.04254356 9.99954746 -15 8 C-14.67 8.99 -14.34 9.98 -14 11 C-12.20759337 10.88610125 -10.41605165 10.75852313 -8.625 10.625 C-7.62726563 10.55539063 -6.62953125 10.48578125 -5.6015625 10.4140625 C-2.84491121 10.23636036 -2.84491121 10.23636036 -1 8 C-0.54188325 6.02764667 -0.54188325 6.02764667 -0.375 3.875 C-0.25125 2.59625 -0.1275 1.3175 0 0 Z " fill="#F3BB21" transform="translate(438,212)"/>
<path d="M0 0 C3.17625 -0.04125 6.3525 -0.0825 9.625 -0.125 C10.6145166 -0.14320801 11.6040332 -0.16141602 12.62353516 -0.18017578 C17.55841256 -0.21109982 21.31949897 0.28621655 26 2 C26.99 1.67 27.98 1.34 29 1 C30.125 4.75 30.125 4.75 29 7 C28.34 7 27.68 7 27 7 C26.67 7.99 26.34 8.98 26 10 C26 9.01 26 8.02 26 7 C25.34 7 24.68 7 24 7 C23.67 7.99 23.34 8.98 23 10 C22.566875 9.05125 22.13375 8.1025 21.6875 7.125 C20.20697799 3.79958063 20.20697799 3.79958063 17 2 C14.2389367 1.69858629 11.57926963 1.49142006 8.8125 1.375 C6.234375 1.25125 3.65625 1.1275 1 1 C1 7.27 1 13.54 1 20 C0.67 20 0.34 20 0 20 C0 13.4 0 6.8 0 0 Z " fill="#9E7812" transform="translate(371,203)"/>
<path d="M0 0 C0.66 0 1.32 0 2 0 C2.33 8.91 2.66 17.82 3 27 C4.32 27.33 5.64 27.66 7 28 C6.34 29.98 5.68 31.96 5 34 C3.20906809 34.08086147 1.41710372 34.13912702 -0.375 34.1875 C-1.87160156 34.23970703 -1.87160156 34.23970703 -3.3984375 34.29296875 C-4.25695312 34.19628906 -5.11546875 34.09960938 -6 34 C-6.66 33.01 -7.32 32.02 -8 31 C-4.7 31.33 -1.4 31.66 2 32 C2.66 31.01 3.32 30.02 4 29 C2.35 29 0.7 29 -1 29 C-0.67 19.43 -0.34 9.86 0 0 Z " fill="#AC8A26" transform="translate(447,198)"/>
<path d="M0 0 C1.32 0.33 2.64 0.66 4 1 C4 1.66 4 2.32 4 3 C4.99 3.33 5.98 3.66 7 4 C7 5.65 7 7.3 7 9 C6.34 9 5.68 9 5 9 C5.103125 9.763125 5.20625 10.52625 5.3125 11.3125 C5 14 5 14 2.6875 15.875 C0 17 0 17 -3 16 C-3 15.34 -3 14.68 -3 14 C-2.34 14 -1.68 14 -1 14 C-1.04125 13.071875 -1.0825 12.14375 -1.125 11.1875 C-1 8 -1 8 1 5 C0.34 4.67 -0.32 4.34 -1 4 C-0.67 2.68 -0.34 1.36 0 0 Z " fill="#FBB814" transform="translate(394,179)"/>
<path d="M0 0 C0 2.97 0 5.94 0 9 C-3.3 9.33 -6.6 9.66 -10 10 C-10 9.34 -10 8.68 -10 8 C-11.32 7.34 -12.64 6.68 -14 6 C-11.58786999 2.38180499 -10.53733553 2.32275934 -6.4375 1.3125 C-5.44621094 1.06113281 -4.45492188 0.80976563 -3.43359375 0.55078125 C-1 0 -1 0 0 0 Z " fill="#F5BC1F" transform="translate(482,187)"/>
<path d="M0 0 C0.66 0.33 1.32 0.66 2 1 C2 4.63 2 8.26 2 12 C1.01 12 0.02 12 -1 12 C-1.33 12.66 -1.66 13.32 -2 14 C-2 13.34 -2 12.68 -2 12 C-3.32 11.67 -4.64 11.34 -6 11 C-6 8.36 -6 5.72 -6 3 C-4.35 3 -2.7 3 -1 3 C-0.67 2.01 -0.34 1.02 0 0 Z " fill="#F6B91B" transform="translate(401,207)"/>
<path d="M0 0 C3.43284952 1.14428317 3.6368219 1.54740897 5.1875 4.625 C7.70981016 10.06736923 7.67757118 14.06408235 5.6875 19.75 C3.52686057 23.9112315 2.43686082 25.52104639 -2 27 C-2.125 24.625 -2.125 24.625 -2 22 C-1.34 21.34 -0.68 20.68 0 20 C0.99 20 1.98 20 3 20 C3 18.35 3 16.7 3 15 C3.66 15 4.32 15 5 15 C5 12.69 5 10.38 5 8 C4.34 8 3.68 8 3 8 C2.87625 7.360625 2.7525 6.72125 2.625 6.0625 C2.41875 5.381875 2.2125 4.70125 2 4 C1.34 3.67 0.68 3.34 0 3 C0 2.01 0 1.02 0 0 Z " fill="#C59825" transform="translate(396,173)"/>
<path d="M0 0 C0 0.33 0 0.66 0 1 C-2.97851562 1.34179688 -2.97851562 1.34179688 -5.95703125 1.68359375 C-8.19396393 1.97170735 -8.19396393 1.97170735 -11 3 C-10.67 3.66 -10.34 4.32 -10 5 C-7.47266765 5.65555119 -7.47266765 5.65555119 -5 6 C-7.02827807 7.01413903 -9.02695989 8.01110113 -11.125 8.875 C-13.42031559 10.25218936 -14.02079402 11.55198504 -15 14 C-15.33 14 -15.66 14 -16 14 C-16.33 12.02 -16.66 10.04 -17 8 C-16.01 7.67 -15.02 7.34 -14 7 C-13.67 6.01 -13.34 5.02 -13 4 C-15.64 4 -18.28 4 -21 4 C-15.06889036 -1.24675084 -7.45932004 -0.1194553 0 0 Z " fill="#BA911F" transform="translate(438,206)"/>
<path d="M0 0 C3.63 0.33 7.26 0.66 11 1 C11 3.31 11 5.62 11 8 C10.34 8 9.68 8 9 8 C9 6.35 9 4.7 9 3 C7.02 3 5.04 3 3 3 C3 11.91 3 20.82 3 30 C2.67 30 2.34 30 2 30 C1.93941406 28.75605469 1.87882812 27.51210937 1.81640625 26.23046875 C1.37881793 17.46549554 0.88601641 8.73359029 0 0 Z " fill="#E4B632" transform="translate(456,186)"/>
<path d="M0 0 C0.33 0.99 0.66 1.98 1 3 C0.67 3.66 0.34 4.32 0 5 C-1.45823212 5.0270043 -2.91660675 5.04639787 -4.375 5.0625 C-5.18710937 5.07410156 -5.99921875 5.08570313 -6.8359375 5.09765625 C-9 5 -9 5 -11 4 C-11 3.01 -11 2.02 -11 1 C-6.87831311 -0.62950412 -4.29299643 -1.26264601 0 0 Z " fill="#FCB81A" transform="translate(434,189)"/>
<path d="M0 0 C1.48831242 0.00667405 2.97660807 0.01863442 4.46484375 0.03515625 C5.22345703 0.03966797 5.98207031 0.04417969 6.76367188 0.04882812 C8.64326246 0.06064945 10.52281274 0.07858547 12.40234375 0.09765625 C12.40234375 0.42765625 12.40234375 0.75765625 12.40234375 1.09765625 C7.45234375 1.09765625 2.50234375 1.09765625 -2.59765625 1.09765625 C-2.59765625 7.36765625 -2.59765625 13.63765625 -2.59765625 20.09765625 C-3.25765625 20.09765625 -3.91765625 20.09765625 -4.59765625 20.09765625 C-5.67553304 15.88267538 -5.55735534 12.17160663 -5.22265625 7.84765625 C-5.08730469 5.98367187 -5.08730469 5.98367187 -4.94921875 4.08203125 C-4.44116018 -0.23082151 -4.47884516 0.1215756 0 0 Z " fill="#EFBE37" transform="translate(373.59765625,201.90234375)"/>
<path d="M0 0 C1.32 0.66 2.64 1.32 4 2 C1.15472062 4.7668381 -0.41047931 5.93742588 -4.41333008 6.36230469 C-5.68587646 6.29946289 -6.95842285 6.23662109 -8.26953125 6.171875 C-8.95053391 6.14401917 -9.63153656 6.11616333 -10.33317566 6.08746338 C-12.49437685 5.99457254 -14.65280975 5.8727507 -16.8125 5.75 C-18.28311522 5.6816746 -19.75381995 5.61524794 -21.22460938 5.55078125 C-24.81770463 5.3891544 -28.40889846 5.20156567 -32 5 C-32 4.67 -32 4.34 -32 4 C-22.1 4 -12.2 4 -2 4 C-2 3.34 -2 2.68 -2 2 C-1.34 2 -0.68 2 0 2 C0 1.34 0 0.68 0 0 Z " fill="#EFBA26" transform="translate(397,225)"/>
<path d="M0 0 C2.64 0.33 5.28 0.66 8 1 C8 2.65 8 4.3 8 6 C7.01 6.495 7.01 6.495 6 7 C6.33 7.99 6.66 8.98 7 10 C6.01 11.485 6.01 11.485 5 13 C0.90998043 6.55512068 0.90998043 6.55512068 1.375 3.6875 C1.58125 3.130625 1.7875 2.57375 2 2 C1.34 1.34 0.68 0.68 0 0 Z " fill="#E9AC1E" transform="translate(432,188)"/>
<path d="M0 0 C0.33 0.99 0.66 1.98 1 3 C1.99 3.33 2.98 3.66 4 4 C3.67 4.33 3.34 4.66 3 5 C4.65 5.33 6.3 5.66 8 6 C7.01 6.66 6.02 7.32 5 8 C3.98131338 8.98095748 2.97648017 9.97702078 2 11 C4.64 11 7.28 11 10 11 C10 11.33 10 11.66 10 12 C5.05 12 0.1 12 -5 12 C-5.33 11.34 -5.66 10.68 -6 10 C-5.21625 10.061875 -4.4325 10.12375 -3.625 10.1875 C-2.75875 10.125625 -1.8925 10.06375 -1 10 C-0.34 9.01 0.32 8.02 1 7 C0.67 6.67 0.34 6.34 0 6 C-0.04080783 4.00041636 -0.04254356 1.99954746 0 0 Z " fill="#BC8C19" transform="translate(423,220)"/>
<path d="M0 0 C0.66 0 1.32 0 2 0 C2 3.3 2 6.6 2 10 C-2.55426184 12.66590937 -5.73946963 13.31563182 -11 13 C-8.00937337 11.00624891 -5.39085683 10.10571418 -2 9 C-0.50256881 7.50256881 -0.66797307 6.01175761 -0.4375 3.9375 C-0.293125 2.638125 -0.14875 1.33875 0 0 Z " fill="#B99022" transform="translate(438,212)"/>
<path d="M0 0 C-0.33 1.32 -0.66 2.64 -1 4 C-7.43311296 4.09507063 -13.65758005 4.15316726 -20 3 C-20 2.67 -20 2.34 -20 2 C-18.86820312 1.93941406 -17.73640625 1.87882813 -16.5703125 1.81640625 C-15.08852855 1.73200083 -13.6067584 1.64735283 -12.125 1.5625 C-11.37863281 1.52318359 -10.63226563 1.48386719 -9.86328125 1.44335938 C-6.43744287 1.24274722 -3.2500626 0 0 0 Z " fill="#CCA230" transform="translate(392,221)"/>
<path d="M0 0 C0 2.31 0 4.62 0 7 C-0.33 7 -0.66 7 -1 7 C-1.33 5.35 -1.66 3.7 -2 2 C-3.0725 2.350625 -4.145 2.70125 -5.25 3.0625 C-9.92307692 4.23076923 -9.92307692 4.23076923 -13 3 C-9.21656826 -0.94792877 -5.07874402 -0.29300446 0 0 Z " fill="#A17E1E" transform="translate(483,186)"/>
<path d="M0 0 C0.66 0 1.32 0 2 0 C1.68031467 3.51653861 1.37757864 5.53431968 -0.875 8.3125 C-3 10 -3 10 -6 11 C-6.125 8.625 -6.125 8.625 -6 6 C-5.34 5.34 -4.68 4.68 -4 4 C-3.01 4 -2.02 4 -1 4 C-0.67 2.68 -0.34 1.36 0 0 Z " fill="#B18821" transform="translate(400,189)"/>
<path d="M0 0 C-0.33 0.66 -0.66 1.32 -1 2 C-0.01 2.66 0.98 3.32 2 4 C-1.3 4 -4.6 4 -8 4 C-8.33 3.01 -8.66 2.02 -9 1 C-5.8035914 -0.06546953 -3.34252724 -0.07427838 0 0 Z " fill="#F7BC23" transform="translate(436,208)"/>
<path d="M0 0 C0.66 0 1.32 0 2 0 C5.25494123 3.51858133 7.55946315 7.15409462 8 12 C7.01 12.33 6.02 12.66 5 13 C4.731875 12.154375 4.46375 11.30875 4.1875 10.4375 C2.9521405 6.86145933 1.523012 3.46139092 0 0 Z " fill="#AA8526" transform="translate(398,200)"/>
<path d="M0 0 C1.32 0.33 2.64 0.66 4 1 C3.67 2.65 3.34 4.3 3 6 C2.34 6 1.68 6 1 6 C0.67 6.99 0.34 7.98 0 9 C0 8.01 0 7.02 0 6 C-0.66 6 -1.32 6 -2 6 C-2.33 6.99 -2.66 7.98 -3 9 C-3.33 7.35 -3.66 5.7 -4 4 C-1.525 4.495 -1.525 4.495 1 5 C0.67 3.35 0.34 1.7 0 0 Z " fill="#DEA610" transform="translate(397,204)"/>
<path d="M0 0 C-1.40844718 3.21524305 -3.10344786 5.32183868 -5.625 7.75 C-6.57246094 8.67039063 -6.57246094 8.67039063 -7.5390625 9.609375 C-8.02117187 10.06828125 -8.50328125 10.5271875 -9 11 C-9 7.76169533 -8.70805274 6.68408288 -7 4 C-2.55555556 0 -2.55555556 0 0 0 Z " fill="#A9A9A9" transform="translate(234,188)"/>
<path d="M0 0 C0.66 0.99 1.32 1.98 2 3 C2.99 3.33 3.98 3.66 5 4 C5.33 4.99 5.66 5.98 6 7 C3.6875 7.625 3.6875 7.625 1 8 C0.01 7.34 -0.98 6.68 -2 6 C-1.34 4.02 -0.68 2.04 0 0 Z " fill="#CA9712" transform="translate(394,215)"/>
<path d="M0 0 C2.475 0.495 2.475 0.495 5 1 C5.33 1.99 5.66 2.98 6 4 C5.67 4.66 5.34 5.32 5 6 C3.35 5.67 1.7 5.34 0 5 C0 3.35 0 1.7 0 0 Z " fill="#F6BC11" transform="translate(429,188)"/>
<path d="M0 0 C0.33 1.32 0.66 2.64 1 4 C-0.15628906 4.19916016 -0.15628906 4.19916016 -1.3359375 4.40234375 C-2.33882813 4.57894531 -3.34171875 4.75554687 -4.375 4.9375 C-5.87160156 5.19853516 -5.87160156 5.19853516 -7.3984375 5.46484375 C-9.96909656 5.87712062 -9.96909656 5.87712062 -12 7 C-12.33 5.02 -12.66 3.04 -13 1 C-12.01 1.33 -11.02 1.66 -10 2 C-10 2.66 -10 3.32 -10 4 C-9.34 3.67 -8.68 3.34 -8 3 C-5.3276379 2.86584528 -2.67749512 2.95681459 0 3 C0 2.01 0 1.02 0 0 Z " fill="#B9922A" transform="translate(482,193)"/>
<path d="M0 0 C0.7425 0.0825 1.485 0.165 2.25 0.25 C1.59 1.57 0.93 2.89 0.25 4.25 C-2.06 4.25 -4.37 4.25 -6.75 4.25 C-3.42692308 0.31153846 -3.42692308 0.31153846 0 0 Z " fill="#F6BD25" transform="translate(448.75,226.75)"/>
<path d="M0 0 C1.32 0 2.64 0 4 0 C2.86695008 3.39914975 1.87481525 4.05254451 -1 6 C-3 5 -3 5 -4 2 C-2.68 2.33 -1.36 2.66 0 3 C0 2.01 0 1.02 0 0 Z " fill="#BD961B" transform="translate(436,225)"/>
<path d="M0 0 C3.63 0.33 7.26 0.66 11 1 C11 1.33 11 1.66 11 2 C8.03 2 5.06 2 2 2 C2 3.98 2 5.96 2 8 C1.67 8 1.34 8 1 8 C0.67 5.36 0.34 2.72 0 0 Z " fill="#917E2A" transform="translate(456,186)"/>
<path d="M0 0 C1.32 0.66 2.64 1.32 4 2 C1.75 4.0625 1.75 4.0625 -1 6 C-3.3125 5.75 -3.3125 5.75 -5 5 C-4.01 5 -3.02 5 -2 5 C-2 4.01 -2 3.02 -2 2 C-1.34 2 -0.68 2 0 2 C0 1.34 0 0.68 0 0 Z " fill="#B28D1D" transform="translate(397,225)"/>
<path d="M0 0 C0.66 0 1.32 0 2 0 C2.33 2.97 2.66 5.94 3 9 C2.01 9 1.02 9 0 9 C0 6.03 0 3.06 0 0 Z " fill="#835F23" transform="translate(415,191)"/>
<path d="M0 0 C3 1 3 1 4.75 3.375 C6 6 6 6 5 9 C4.34 8.67 3.68 8.34 3 8 C2.66666667 6.66666667 2.33333333 5.33333333 2 4 C1.34 3.67 0.68 3.34 0 3 C0 2.01 0 1.02 0 0 Z " fill="#B6922B" transform="translate(396,173)"/>
<path d="M0 0 C1.9955516 3.99110319 2.19546065 5.69986566 2 10 C1.01 10 0.02 10 -1 10 C-0.67 6.7 -0.34 3.4 0 0 Z " fill="#F4BB27" transform="translate(421,216)"/>
<path d="M0 0 C0.99 0.33 1.98 0.66 3 1 C0.47211993 3.79872437 -1.20411134 5.45773019 -5 6 C-5 5.34 -5 4.68 -5 4 C-2.6875 1.8125 -2.6875 1.8125 0 0 Z " fill="#A0A09F" transform="translate(192,188)"/>
<path d="M0 0 C-0.639375 0.2475 -1.27875 0.495 -1.9375 0.75 C-4.18741541 1.81562433 -4.18741541 1.81562433 -4.75 4.125 C-4.8325 4.74375 -4.915 5.3625 -5 6 C-5.99 4.35 -6.98 2.7 -8 1 C-4.93251126 -0.86240388 -3.40254489 -1.2151946 0 0 Z " fill="#787878" transform="translate(272,170)"/>
<path d="" fill="#7F7F7F" transform="translate(0,0)"/>
</svg>
